<?xml version="1.0" encoding="UTF-8" standalone="no"?>
<!-- Created with Inkscape (http://www.inkscape.org/) -->

<svg
   xmlns:dc="http://purl.org/dc/elements/1.1/"
   xmlns:cc="http://creativecommons.org/ns#"
   xmlns:rdf="http://www.w3.org/1999/02/22-rdf-syntax-ns#"
   xmlns:svg="http://www.w3.org/2000/svg"
   xmlns="http://www.w3.org/2000/svg"
   xmlns:sodipodi="http://sodipodi.sourceforge.net/DTD/sodipodi-0.dtd"
   xmlns:inkscape="http://www.inkscape.org/namespaces/inkscape"
   width="468px"
   height="60px"
   id="svg11549"
   version="1.1"
   inkscape:version="0.48.3.1 r9886"
   sodipodi:docname="New document 42">
  <defs
     id="defs11551" />
  <sodipodi:namedview
     id="base"
     pagecolor="#ffffff"
     bordercolor="#666666"
     borderopacity="1.0"
     inkscape:pageopacity="0.0"
     inkscape:pageshadow="2"
     inkscape:zoom="9.6"
     inkscape:cx="61.827821"
     inkscape:cy="33.836545"
     inkscape:document-units="px"
     inkscape:current-layer="flowRoot11557"
     showgrid="true"
     inkscape:snap-global="true"
     inkscape:window-width="1440"
     inkscape:window-height="884"
     inkscape:window-x="0"
     inkscape:window-y="16"
     inkscape:window-maximized="0">
    <inkscape:grid
       type="xygrid"
       id="grid11565" />
  </sodipodi:namedview>
  <metadata
     id="metadata11554">
    <rdf:RDF>
      <cc:Work
         rdf:about="">
        <dc:format>image/svg+xml</dc:format>
        <dc:type
           rdf:resource="http://purl.org/dc/dcmitype/StillImage" />
        <dc:title></dc:title>
      </cc:Work>
    </rdf:RDF>
  </metadata>
  <g
     inkscape:groupmode="layer"
     id="layer6"
     inkscape:label="Guides">
    <rect
       style="fill:none;stroke:#ff0000;stroke-width:0.2;stroke-miterlimit:4;stroke-opacity:1;stroke-dasharray:none;stroke-dashoffset:0;display:inline"
       id="rect11594"
       width="65.208336"
       height="17.5"
       x="65"
       y="31.979168" />
    <g
       id="g11600"
       transform="translate(14.791667,24.6875)"
       style="stroke-width:0.2;stroke-miterlimit:4;stroke-dasharray:none;display:inline">
      <path
         inkscape:connector-curvature="0"
         id="path11596"
         d="m 10,25 85,0 0,0"
         style="fill:none;stroke:#000000;stroke-width:0.2;stroke-linecap:butt;stroke-linejoin:miter;stroke-miterlimit:4;stroke-opacity:1;stroke-dasharray:none" />
      <path
         inkscape:connector-curvature="0"
         id="path11598"
         d="m 50,25 c 8.75,-43.541667 8.75,-43.541667 8.75,-43.541667"
         style="fill:none;stroke:#000000;stroke-width:0.2;stroke-linecap:butt;stroke-linejoin:miter;stroke-miterlimit:4;stroke-opacity:1;stroke-dasharray:none" />
      <path
         inkscape:connector-curvature="0"
         id="path11598-8"
         d="m 59.940904,46.255761 c 8.75,-43.5416671 8.75,-43.5416671 8.75,-43.5416671"
         style="fill:none;stroke:#000000;stroke-width:0.2;stroke-linecap:butt;stroke-linejoin:miter;stroke-miterlimit:4;stroke-opacity:1;stroke-dasharray:none;display:inline" />
      <path
         inkscape:connector-curvature="0"
         id="path11596-3"
         d="m 50.208333,18.3125 84.999997,0 0,0"
         style="fill:none;stroke:#000000;stroke-width:0.2;stroke-linecap:butt;stroke-linejoin:miter;stroke-miterlimit:4;stroke-opacity:1;stroke-dasharray:none;display:inline" />
      <path
         inkscape:connector-curvature="0"
         id="path11596-3-7"
         d="m 50.166663,12.3125 84.999967,0 0,0"
         style="fill:none;stroke:#000000;stroke-width:0.2;stroke-linecap:butt;stroke-linejoin:miter;stroke-miterlimit:4;stroke-opacity:1;stroke-dasharray:none;display:inline" />
    </g>
  </g>
  <g
     id="layer1"
     inkscape:label="Layer 1"
     inkscape:groupmode="layer"
     style="display:inline">
    <g
       transform="translate(6.65625,-3.8964844)"
       style="font-size:24px;font-style:italic;font-variant:normal;font-weight:normal;font-stretch:normal;text-align:start;line-height:125%;letter-spacing:0px;word-spacing:0px;writing-mode:lr-tb;text-anchor:start;fill:#000000;fill-opacity:1;stroke:none;font-family:TakaoExGothic;-inkscape-font-specification:TakaoExGothic Italic"
       id="flowRoot11557">
      <path
         d="m 18.601562,28.662109 -2.296875,0 -0.890624,-5.050781 -6.8906255,0 -2.8710938,5.050781 -2.2851562,0 10.2539065,-17.261718 1.699219,0 3.281249,17.261718 m -3.445312,-6.75 -0.820312,-4.558593 c -0.218761,-1.273425 -0.347667,-2.425768 -0.386719,-3.457032 l -0.07031,0 c -0.50001,1.093764 -1.097665,2.246107 -1.792968,3.457032 l -2.6132817,4.558593 5.6835937,0"
         style="line-height:125%;font-family:TakaoExGothic;-inkscape-font-specification:TakaoExGothic Italic"
         id="path12115"
         inkscape:connector-curvature="0" />
      <path
         d="m 31.480469,25.955078 c -1.492199,2.039064 -3.40626,3.058594 -5.742188,3.058594 -1.679693,0 -2.960941,-0.550781 -3.84375,-1.652344 -0.945315,-1.203122 -1.226564,-2.769527 -0.84375,-4.699219 0.38281,-1.914054 1.289059,-3.476552 2.71875,-4.6875 1.304681,-1.085925 2.781242,-1.628893 4.429688,-1.628906 2.328113,1.3e-5 3.785143,1.007824 4.371093,3.023438 l -1.839843,0.867187 c -0.398449,-1.476552 -1.328136,-2.214833 -2.789063,-2.214844 -0.960946,1.1e-5 -1.863288,0.351573 -2.707031,1.054688 -1.062506,0.882821 -1.746099,2.093758 -2.050781,3.632812 -0.29688,1.45313 -0.101567,2.605473 0.585937,3.457032 0.593745,0.750002 1.433587,1.125001 2.519531,1.125 1.476554,1e-6 2.738271,-0.734373 3.785157,-2.203125 l 1.40625,0.867187"
         style="line-height:125%;font-family:TakaoExGothic;-inkscape-font-specification:TakaoExGothic Italic"
         id="path12117"
         inkscape:connector-curvature="0" />
      <path
         d="m 39.835937,27.994141 c -1.007819,0.617187 -1.976568,0.925781 -2.90625,0.925781 -1.859378,0 -2.582033,-1.046874 -2.167968,-3.140625 l 1.523437,-7.605469 -1.628906,0 0.292969,-1.464844 1.628906,0 0.539062,-2.683593 2.167969,-0.984375 -0.738281,3.667968 3.316406,0 -0.292969,1.464844 -3.316406,0 -1.464844,7.324219 c -0.242192,1.226565 0.05468,1.839845 0.890625,1.839844 0.562494,1e-6 1.140618,-0.214842 1.734375,-0.644532 l 0.421875,1.300782"
         style="line-height:125%;font-family:TakaoExGothic;-inkscape-font-specification:TakaoExGothic Italic"
         id="path12119"
         inkscape:connector-curvature="0" />
      <path
         d="m 47.359375,14.166016 -2.355469,0 0.480469,-2.402344 2.355469,0 -0.480469,2.402344 m -3.046875,14.496093 -2.0625,0 2.390625,-11.953125 2.0625,0 -2.390625,11.953125"
         style="line-height:125%;font-family:TakaoExGothic;-inkscape-font-specification:TakaoExGothic Italic"
         id="path12121"
         inkscape:connector-curvature="0" />
      <path
         d="m 58.888023,16.708984 -7.523437,12.164063 -1.394531,0 -2.625,-12.164063 2.261718,0 1.265625,6.984375 0.28125,2.039063 0.07031,0.527344 0.07031,0 c 0.226556,-0.453122 0.6914,-1.30859 1.394532,-2.566407 l 3.996093,-6.984375 2.203125,0"
         style="line-height:125%;font-family:TakaoExGothic;-inkscape-font-specification:TakaoExGothic Italic"
         id="path12123"
         inkscape:connector-curvature="0" />
      <path
         d="m 62.166672,14.166016 -2.355469,0 0.480469,-2.402344 2.355469,0 -0.480469,2.402344 m -3.046875,14.496093 -2.0625,0 2.390625,-11.953125 2.0625,0 -2.390625,11.953125"
         style="line-height:125%;font-family:TakaoExGothic;-inkscape-font-specification:TakaoExGothic Italic"
         id="path12125"
         inkscape:connector-curvature="0" />
      <g
         id="g12234">
        <path
           id="path12121-9"
           style="font-size:24px;font-style:italic;font-variant:normal;font-weight:normal;font-stretch:normal;text-align:start;line-height:125%;letter-spacing:0px;word-spacing:0px;writing-mode:lr-tb;text-anchor:start;fill:#000000;fill-opacity:1;stroke:none;font-family:TakaoExGothic;-inkscape-font-specification:TakaoExGothic Italic"
           d="m 33.150388,37.535807 -2.355469,0 0.480469,-2.402344 2.355469,0 -0.480469,2.402344 m -3.046875,14.496093 -2.0625,0 2.390625,-11.953125 2.0625,0 -2.390625,11.953125"
           inkscape:connector-curvature="0" />
        <path
           inkscape:connector-curvature="0"
           id="path12123-4"
           style="font-size:24px;font-style:italic;font-variant:normal;font-weight:normal;font-stretch:normal;text-align:start;line-height:125%;letter-spacing:0px;word-spacing:0px;writing-mode:lr-tb;text-anchor:start;fill:#000000;fill-opacity:1;stroke:none;font-family:TakaoExGothic;-inkscape-font-specification:TakaoExGothic Italic"
           d="m 44.26237,40.078775 -7.523437,12.164063 -1.394531,0 -2.625,-12.164063 2.261718,0 1.265625,6.984375 0.28125,2.039063 0.07031,0.527344 0.07031,0 c 0.226556,-0.453122 0.6914,-1.30859 1.394532,-2.566407 l 3.996093,-6.984375 2.203125,0" />
        <path
           inkscape:connector-curvature="0"
           id="path12125-3"
           style="font-size:24px;font-style:italic;font-variant:normal;font-weight:normal;font-stretch:normal;text-align:start;line-height:125%;letter-spacing:0px;word-spacing:0px;writing-mode:lr-tb;text-anchor:start;fill:#000000;fill-opacity:1;stroke:none;font-family:TakaoExGothic;-inkscape-font-specification:TakaoExGothic Italic"
           d="m 47.332686,37.535807 -2.355469,0 0.480469,-2.402344 2.355469,0 -0.480469,2.402344 m -3.046875,14.496093 -2.0625,0 2.390625,-11.953125 2.0625,0 -2.390625,11.953125" />
      </g>
    </g>
    <flowRoot
       xml:space="preserve"
       id="flowRoot11557-6"
       style="font-size:24px;font-style:normal;font-variant:normal;font-weight:normal;font-stretch:normal;text-align:start;line-height:125%;letter-spacing:0px;word-spacing:0px;writing-mode:lr-tb;text-anchor:start;fill:#000000;fill-opacity:1;stroke:none;font-family:Monospace;-inkscape-font-specification:Monospace"
       transform="translate(51.65625,53.57802)"><flowRegion
         id="flowRegion11559-3"><rect
           id="rect11561-1"
           width="281.66666"
           height="55.416668"
           x="3.3333333"
           y="2.5"
           style="font-size:24px;font-style:normal;font-variant:normal;font-weight:normal;font-stretch:normal;text-align:start;line-height:125%;writing-mode:lr-tb;text-anchor:start;font-family:Monospace;-inkscape-font-specification:Monospace" /></flowRegion><flowPara
         id="flowPara11563-4"
         style="font-size:24px;font-style:normal;font-variant:normal;font-weight:normal;font-stretch:normal;text-align:start;line-height:125%;writing-mode:lr-tb;text-anchor:start;font-family:Monospace;-inkscape-font-specification:Monospace">Metrics</flowPara></flowRoot>  </g>
  <g
     inkscape:groupmode="layer"
     id="layer5"
     inkscape:label="Metrics"
     style="display:inline">
    <path
       style="font-size:24px;font-style:italic;font-variant:normal;font-weight:normal;font-stretch:normal;text-align:start;line-height:125%;letter-spacing:0px;word-spacing:0px;writing-mode:lr-tb;text-anchor:start;fill:none;stroke:#000000;stroke-width:1px;stroke-linecap:butt;stroke-linejoin:miter;stroke-opacity:1;font-family:TakaoExGothic;-inkscape-font-specification:TakaoExGothic Italic"
       d="m 64.687502,49.166666 3.333333,-15.625 3.909957,14.593803 10.269346,-14.507508 -3.137631,15.538705"
       id="path12151"
       inkscape:connector-curvature="0"
       sodipodi:nodetypes="ccccc" />
  </g>
</svg>
